<svg xmlns="http://www.w3.org/2000/svg" viewBox="0 0 841.26 233.9"><defs><style>.cls-1,.cls-2{fill:none;stroke:#ffff;}.cls-1{stroke-linecap:round;stroke-linejoin:round;}.cls-2{stroke-miterlimit:10;}</style></defs><g id="Layer_2" data-name="Layer 2"><g id="Layer_1-2" data-name="Layer 1"><path class="cls-1" d="M778.24,186.18V37.92c-25.94,1.16-21.68-5.68-21.68-5.68,1-1.82.77-2.67.48-3.11-1-1.47-4.22.06-6.28-1.92a3.08,3.08,0,0,1-1-2.32c.2-1.67,2.6-2.53,3.49-2.84a8.88,8.88,0,0,1,4.9-.26s-2.45-3.61.78-4.39,17.54-5.29,17.54-5.29S765.21,1.53,783.79.5"/><path class="cls-1" d="M49,214.45h6.86S50.69,197,58.63,189.08H74.11V128.89h4.45V125h21.1v3.29h4.07v60.58h9.87a92.22,92.22,0,0,1,1.54,13.16,34.15,34.15,0,0,0,6.78,0V166.63h4.84V162h13.16V110.5L164.69,107l11.42,7.35v89.81h6.2V159.47h21.48v60h10.45V149.6H241v68.71l7.55-2.52v-120h7.55V90.18h3.29l6.39-16.26L271.53,90h3.29v5.81h7.74V229.14l3.87,4.26h9.49V151.73h8.13v-4.65h30.58v4.84h7.16v26.13h18.77v24.58l27.49-4.84V169.92h17V119.6h13s13.64-17.71,31.35,0h12.39V220.24l8.13,2.13V166.05h20.51V116.31l17.42-4.65,18.78,4.65v80.32H547V85.14l32.71,1.75v91h16.65v53.62h15.48V178.63h26v38.9h11.72V194.69h17.61V163.92h5.62V161.6h14.71v2.32h5.61v48.77h11.23v18.39h11.8v-48l9.1-3.87h16.06v17.23h16.84V186.18h20.13"/><path class="cls-2" d="M766.75,37.84s23.49,63.18,2.59,148.34"/><path class="cls-1" d="M783.79.5c18.58,1,7.35,11.61,7.35,11.61s14.33,4.52,17.55,5.29.78,4.39.78,4.39a8.88,8.88,0,0,1,4.9.26c.89.31,3.28,1.17,3.48,2.84a3.08,3.08,0,0,1-1,2.32c-2.06,2-5.32.45-6.28,1.92-.29.44-.47,1.29.47,3.11,0,0,4.26,6.84-21.67,5.68V186.18h12.9v32.9h13.94V233.4h24.58"/><path class="cls-2" d="M800.83,37.84S777.34,101,798.24,186.18"/><polyline class="cls-1" points="0.5 233.4 9.21 233.4 48.5 233.4 48.5 214.45 52.31 214.45"/></g></g></svg>